<svg width="40" height="40" viewBox="0 0 40 40" fill="none" xmlns="http://www.w3.org/2000/svg">
<path d="M24.9292 25.8334C25.6625 22.4542 26.0458 19.4584 26.0458 18.2042C26.0458 14.6959 23.1916 11.8417 19.6875 11.8417C16.1833 11.8417 13.3291 14.6959 13.3291 18.2042C13.3291 19.4584 13.7124 22.4542 14.4457 25.8375C13.3582 26.3084 12.3707 26.9709 11.5124 27.8251C9.71239 29.6209 8.7207 32.0168 8.7207 34.5626C8.7207 36.2792 10.1207 37.6792 11.8373 37.6792H12.6665L12.9499 38.8167C13.1249 39.5126 13.7499 40 14.4665 40H24.9082C25.6249 40 26.2498 39.5125 26.4249 38.8167L26.7082 37.6792H27.5374C29.2541 37.6792 30.6541 36.2792 30.6541 34.5626C30.6542 30.7292 28.4167 27.3459 24.9292 25.8334ZM16.325 18.4208C17.2417 18.2167 18.3125 17.7417 18.7875 16.3709C19.8625 17.2916 21.2166 17.9334 23.0541 18.4042V21.0125C23.0541 22.8709 21.5417 24.3792 19.6875 24.3792C17.8333 24.3792 16.325 22.8709 16.325 21.0125V18.4208ZM20.9083 25.0292V26.0251C20.9083 26.7001 20.3625 27.2459 19.6875 27.2459C19.3624 27.2459 19.0541 27.1209 18.825 26.8876C18.5916 26.6584 18.4666 26.3501 18.4666 26.0251V25.0292C18.8541 25.1459 19.2624 25.2126 19.6875 25.2126C20.1125 25.2126 20.5208 25.1459 20.9083 25.0292ZM19.6875 36.4709C18.8333 36.4709 18.1416 35.7792 18.1416 34.9292C18.1416 34.0751 18.8333 33.3793 19.6875 33.3793C20.5417 33.3793 21.2374 34.0751 21.2374 34.9292C21.2375 35.7792 20.5417 36.4709 19.6875 36.4709ZM27.5375 36.8459H26.9167L28.1792 31.7917C28.2125 31.6667 28.225 31.5375 28.225 31.4125C28.225 30.5762 27.5531 29.85 26.6625 29.85H12.7166C11.6711 29.85 10.9572 30.8289 11.1958 31.7917L12.4583 36.8459H11.8374C10.5791 36.8459 9.55412 35.8209 9.55412 34.5626C9.55412 32.2376 10.4583 30.0543 12.1041 28.4168C12.9624 27.5543 13.9624 26.9001 15.0791 26.4668C15.8999 26.1418 16.7582 25.9585 17.6333 25.896V26.0252C17.6333 26.5752 17.8457 27.0918 18.2333 27.4794C18.6208 27.8669 19.1374 28.0794 19.6875 28.0794C20.8208 28.0794 21.7417 27.1585 21.7417 26.0252V25.896C22.6167 25.9585 23.475 26.1418 24.3 26.4668C27.6542 27.7794 29.8209 30.9585 29.8209 34.5627C29.8208 35.8209 28.7958 36.8459 27.5375 36.8459Z" fill="white"/>
<path d="M38.7126 16.7875L34.4418 12.5167V3.13334C34.4418 2.13749 33.6334 1.32918 32.6376 1.32918H29.8709C28.8709 1.32918 28.0626 2.13749 28.0626 3.13334V6.1375L23.5084 1.5833C22.4875 0.562511 21.1293 0 19.6875 0C18.2458 0 16.8875 0.562511 15.8667 1.5833L0.662472 16.7875C-0.220824 17.675 -0.220824 19.1167 0.662472 20C1.55 20.8875 2.9875 20.8833 3.87503 20L19.0792 4.79577C19.2334 4.64158 19.4542 4.55413 19.6875 4.55413C19.9209 4.55413 20.1459 4.64166 20.2958 4.79577L35.5042 20C35.9458 20.4416 36.525 20.6625 37.1083 20.6625C37.6875 20.6625 38.2709 20.4416 38.7125 20C39.6001 19.1167 39.6001 17.675 38.7126 16.7875ZM38.1251 19.4125C37.5626 19.9709 36.6543 19.9709 36.0918 19.4125L20.8875 4.20417C20.5792 3.89585 20.1416 3.72079 19.6875 3.72079C19.2333 3.72079 18.7958 3.89577 18.4917 4.20417L3.28334 19.4125C2.72499 19.9709 1.81251 19.9709 1.25 19.4125C0.691648 18.85 0.691648 17.9375 1.25 17.3792L16.4583 2.17498C17.3209 1.30832 18.4667 0.833335 19.6875 0.833335C20.9084 0.833335 22.0542 1.30832 22.9167 2.17498L38.1251 17.3792C38.6834 17.9375 38.6834 18.85 38.1251 19.4125Z" fill="white"/>
</svg>
