<svg width="47" height="38" viewBox="0 0 47 38" fill="none" xmlns="http://www.w3.org/2000/svg">
<path d="M42.3297 9.95448C41.2787 7.05536 39.3219 4.46155 36.826 2.64831C35.6919 1.82868 34.6342 1.39408 33.6654 1.34205C33.6522 1.34009 33.6044 1.33569 33.5919 1.33789C31.7768 1.27245 30.7574 2.48884 29.6763 3.91328C29.5294 4.07623 26.8914 7.89577 22.0609 10.9924C22.0575 10.9972 22.0533 10.998 22.0499 11.0029C22.0499 11.0029 22.0458 11.0036 22.0417 11.0043L16.1065 15.2938C16.103 15.2986 16.0996 15.3036 16.0955 15.3043C16.0962 15.3085 16.0921 15.3092 16.0879 15.3099C11.6348 18.9183 7.15945 20.2386 6.98062 20.3173C5.82944 20.7131 4.52826 21.1567 3.77117 22.2326C3.01066 23.3135 2.92983 24.8228 3.53298 26.7129C4.47055 29.6491 6.32119 32.3216 8.74388 34.2292C9.9478 35.1778 11.4359 35.9393 12.9182 35.5752C14.2413 35.2562 15.1375 34.1429 15.9246 33.1644C16.1484 32.9279 18.8468 29.2563 23.9053 25.7767C23.9094 25.776 23.9087 25.7718 23.9087 25.7718C23.9467 25.7437 25.2013 24.8414 25.2013 24.8414C25.53 27.6537 26.1218 30.2568 27.092 33.183C27.1469 33.349 27.2999 33.4634 27.4727 33.4714C27.6455 33.4796 27.8083 33.3823 27.879 33.2242L28.9627 30.8182L31.9244 33.1834C32.0495 33.2856 32.2245 33.3061 32.3785 33.2318C32.5234 33.1548 32.6163 33.0013 32.6086 32.8357C32.4931 30.0672 32.0812 27.488 31.6117 24.9961C34.3646 26.5412 35.118 27.0724 38.936 28.5113C39.0918 28.5695 39.265 28.5304 39.3818 28.4156C39.4979 28.2966 39.5358 28.1227 39.4789 27.97L38.1623 24.4151L40.783 24.1415C40.9555 24.1239 41.1007 23.9998 41.1484 23.8329C41.192 23.6667 41.1299 23.4849 40.9916 23.3807C38.5217 21.5457 36.2351 20.1667 33.677 18.9727C35.3658 18.0066 37.1213 17.1745 38.9287 16.4916L39.0656 16.4418C40.7852 15.7958 42.2849 15.1416 42.7077 13.3363L42.7111 13.3315C42.7192 13.3043 42.7224 13.2738 42.7264 13.2474C42.9193 12.3266 42.7939 11.2264 42.3297 9.95448ZM15.2703 32.6371C14.5278 33.552 13.7612 34.5011 12.7184 34.7578C11.7246 35.0017 10.5694 34.5969 9.26549 33.5673C6.97619 31.7605 5.22408 29.2335 4.33576 26.4555C3.81763 24.829 3.86136 23.5704 4.46094 22.7192C5.06051 21.868 6.17577 21.4871 7.25016 21.1178C7.47673 21.0179 11.7294 19.7711 16.1514 16.3268C17.6277 20.4232 19.8948 23.4892 22.9096 25.4509C18.19 28.8108 15.8066 32.0584 15.2703 32.6371ZM22.5298 22.2279C22.4607 22.3216 22.3326 22.3484 22.2348 22.2799C20.3817 20.9788 19.0499 18.9645 18.5817 16.7466C18.5578 16.6351 18.6282 16.5242 18.7438 16.4996C18.858 16.4666 18.9703 16.5453 18.995 16.6609C19.4401 18.7716 20.7087 20.6942 22.4779 21.9329C22.5714 22.002 22.5949 22.135 22.5298 22.2279ZM23.4663 22.8982C23.4069 22.9987 23.2761 23.0345 23.1757 22.9751L22.8221 22.7676C22.7216 22.7081 22.6858 22.5774 22.7452 22.477C22.8045 22.3765 22.9361 22.3448 23.0365 22.4042L23.39 22.6118C23.4905 22.6711 23.5215 22.7984 23.4663 22.8982ZM36.734 5.40623C37.3063 5.78511 37.8148 6.31235 38.2055 6.92459C38.5083 7.40238 38.933 7.94019 39.1259 8.54877C39.3025 9.11304 39.2605 9.8702 38.7608 10.2924C38.0705 10.8725 37.215 10.4665 36.5545 9.8547C35.9612 9.30815 35.4529 8.66097 35.0417 7.93226C34.8365 7.57003 34.5961 7.08123 34.5729 6.53693C34.5432 5.88245 34.8686 5.29811 35.3677 5.11589C35.7616 4.96943 36.2244 5.06769 36.734 5.40623ZM32.8249 5.05456C32.7966 4.40839 33.0167 3.83404 33.4198 3.47169C33.9164 3.03289 34.6679 2.9946 35.1266 3.38493C35.2168 3.45904 35.2277 3.59414 35.1537 3.68436C35.079 3.77034 34.9438 3.78133 34.8536 3.7073C34.5613 3.45899 34.0325 3.49649 33.703 3.79019C33.3948 4.05874 33.2243 4.52576 33.2458 5.03602C33.283 5.90339 33.7947 6.69145 34.2465 7.38285C34.3112 7.48278 34.2827 7.61209 34.1868 7.6761C34.0868 7.74084 33.9576 7.71224 33.8936 7.61638C33.4354 6.91318 32.8653 6.03699 32.8249 5.05456ZM31.7136 31.9397L29.065 29.8192C28.9609 29.739 28.8308 29.7063 28.7042 29.7414C28.5768 29.7725 28.4723 29.8594 28.4158 29.9765L27.5596 31.8754C26.7521 29.2633 26.2613 26.8693 25.9838 24.275C26.827 23.6637 29.3962 21.8097 30.0375 21.3411C30.141 21.8798 30.2446 22.4185 30.3537 22.9646C30.9224 25.8246 31.5063 28.7719 31.7136 31.9397ZM38.7674 15.6506L38.6312 15.7046C35.4457 16.9046 32.4168 18.5567 29.6124 20.6063C26.5308 18.7036 24.2403 15.6502 22.7955 11.5139C27.5831 8.36921 30.2056 4.58247 30.349 4.42442C30.5709 4.12819 30.7971 3.83129 31.0351 3.55378C30.8989 4.48162 31.1715 5.3718 31.4686 6.13339C32.6901 9.2467 34.8028 11.8986 37.5681 13.8057C38.2647 14.2827 39.1122 14.7887 40.1157 14.9159C40.2205 14.9273 40.3198 14.9313 40.4224 14.9304C39.9161 15.2166 39.3382 15.4385 38.7674 15.6506Z" fill="white"/>
<path d="M38.2182 9.64683C37.9188 9.89242 37.4123 9.49765 37.1262 9.23533C36.5986 8.74571 36.1416 8.17085 35.7742 7.52024C35.6168 7.2353 35.4316 6.86516 35.4143 6.49985C35.4015 6.23224 35.5161 5.9593 35.6605 5.90377C35.8298 5.84394 36.1158 6.00771 36.2665 6.1096C36.7418 6.42422 37.1663 6.8635 37.4929 7.37991C37.7893 7.84606 38.1705 8.33142 38.322 8.80172C38.4244 9.13926 38.382 9.50661 38.2182 9.64683Z" fill="white"/>
<path d="M12.9752 20.2737C11.9281 20.8083 10.7112 21.0024 9.56634 21.3669C8.07583 21.8419 7.06915 22.5672 6.57456 23.5229C6.07288 24.493 6.08702 25.7525 6.61404 26.9783C7.07472 28.0511 7.82814 28.9453 8.55667 29.8101C8.63214 29.8994 8.76544 29.91 8.85399 29.8355C8.94288 29.7604 8.95447 29.6272 8.87939 29.5381C8.1705 28.697 7.43768 27.8271 7.00137 26.8117C6.52466 25.7026 6.50568 24.5745 6.94925 23.7167C7.39042 22.8639 8.31409 22.2086 9.69414 21.769C10.8478 21.402 12.0682 21.2106 13.1669 20.6494C13.2706 20.5964 13.3117 20.4693 13.2587 20.3656C13.2061 20.2616 13.0793 20.221 12.9752 20.2737Z" fill="white"/>
<path d="M9.43047 30.1166C9.32346 30.0697 9.19898 30.118 9.15243 30.2244C9.10511 30.3311 9.15341 30.4556 9.26004 30.5026L9.53997 30.6265C9.64713 30.6733 9.77154 30.625 9.81801 30.5187C9.86533 30.412 9.81702 30.2875 9.71039 30.2404L9.43047 30.1166Z" fill="white"/>
<path d="M27.2981 24.2259C27.1832 24.2462 27.1067 24.3555 27.127 24.4703L27.8487 28.5613C27.869 28.6762 27.9782 28.7527 28.0931 28.7324C28.208 28.7122 28.2845 28.6029 28.2642 28.4881L27.5424 24.3971C27.5222 24.2823 27.4129 24.2057 27.2981 24.2259Z" fill="white"/>
<path d="M11.615 22.0508C10.7702 22.2539 9.89648 22.4641 9.12999 22.9407C8.2495 23.4873 7.69606 24.3227 7.64927 25.175C7.59265 26.2064 8.24103 27.1051 8.90988 27.9373C8.9824 28.0267 9.11374 28.0435 9.20674 27.9694C9.29725 27.8965 9.31187 27.7637 9.23896 27.6729C8.59543 26.8727 8.02204 26.0813 8.07087 25.1981C8.10969 24.4832 8.58897 23.7732 9.35249 23.2988C10.0613 22.8582 10.9013 22.6562 11.7132 22.4609C11.8268 22.4335 11.8963 22.3198 11.8691 22.2064C11.8418 22.0936 11.7312 22.022 11.615 22.0508Z" fill="white"/>
</svg>
