<svg width="40" height="34" viewBox="0 0 40 34" fill="none" xmlns="http://www.w3.org/2000/svg">
<path d="M18.4715 33.0031C19.1403 33.1232 19.8577 33.0557 20.4322 32.7038C20.8011 32.4781 21.0908 32.1416 21.2675 31.7557C25.3887 32.2859 29.4964 30.4481 31.8856 27.3931C32.606 27.9455 33.5419 28.2458 34.4986 28.2458C35.1876 28.2458 35.8859 28.0919 36.5183 27.7687C40.1388 25.9177 40.0733 20.3507 39.9671 18.6883C39.8535 16.9129 39.222 15.3712 38.1888 14.3474C37.2042 13.3722 35.8248 12.8524 34.4733 12.9277C33.9111 8.25525 31.0403 3.99911 26.8955 1.75257C22.6341 -0.557383 17.322 -0.586085 13.0353 1.67953C8.82345 3.90522 5.8894 8.19649 5.32031 12.9208C4.03821 12.9077 2.74529 13.4219 1.81124 14.3474C0.77801 15.3712 0.146462 16.9129 0.0329329 18.6883C-0.0733005 20.3506 -0.138805 25.9177 3.48171 27.7687C4.11406 28.0919 4.81199 28.2458 5.50095 28.2458C6.81776 28.2458 8.1017 27.6831 8.82802 26.6655C9.44698 25.7989 9.63579 24.7505 9.76399 23.8358C9.99554 22.1869 10.0908 20.5077 10.0473 18.8448C10.0143 17.5792 9.88939 16.2515 9.20733 15.1166C9.0469 14.8496 8.85215 14.6046 8.6376 14.3776C8.90996 10.6408 11.189 7.09286 14.4849 5.3071C17.8259 3.49624 22.1162 3.54627 25.4132 5.43386C28.695 7.31166 30.9038 10.9582 31.0555 14.7356C30.9619 14.8585 30.872 14.9843 30.7924 15.1166C30.1109 16.2518 29.9859 17.5792 29.9529 18.8446C29.9094 20.5078 30.0046 22.187 30.2362 23.8359C30.3644 24.7504 30.5532 25.7989 31.1721 26.6655C31.2069 26.7143 31.2489 26.7569 31.2862 26.8036C29.0213 29.7585 25.1524 31.386 21.4558 30.9404C21.4635 30.396 21.2515 29.8521 20.8706 29.4738C20.4661 29.0723 19.9224 28.8843 19.4434 28.7533C18.8131 28.581 18.164 28.4601 17.5145 28.394C17.1019 28.3515 16.6648 28.3362 16.2522 28.5004C15.4461 28.8219 14.9818 29.7841 15.1958 30.6909C15.5901 32.3628 17.8025 32.8834 18.4715 33.0031ZM37.7567 25.5407L31.1392 16.3567C31.2341 16.0742 31.3531 15.8018 31.5069 15.546C31.6067 15.3799 31.7254 15.2262 31.8516 15.0786L38.4382 24.2159C38.2523 24.6952 38.026 25.1407 37.7567 25.5407ZM38.6063 23.7369L32.1451 14.7732C32.4692 14.4728 32.8472 14.2293 33.2582 14.0548L39.0023 22.0229C38.9119 22.6145 38.782 23.1915 38.6063 23.7369ZM37.6019 14.9395C38.4407 15.7703 38.9678 17.0232 39.1093 18.4832L35.8102 13.9015C36.4758 14.089 37.1003 14.4424 37.6019 14.9395ZM34.3831 13.7633C34.4991 13.7527 34.6151 13.7474 34.7315 13.7474C34.8914 13.7474 35.0509 13.7607 35.2098 13.7804L39.1591 19.2649C39.1817 19.9707 39.1575 20.6992 39.0806 21.4192L33.6659 13.9082C33.8997 13.8386 34.139 13.7858 34.3831 13.7633ZM2.39805 14.9395C2.89682 14.445 3.51715 14.0946 4.1786 13.9065L0.89202 18.4707C1.0353 17.0162 1.56165 15.7679 2.39805 14.9395ZM0.841429 19.2534L4.78249 13.7803C5.05909 13.7456 5.33875 13.7379 5.61648 13.7633C5.85861 13.7856 6.09577 13.8379 6.32772 13.9064L0.918478 21.4099C0.84175 20.689 0.818338 19.9598 0.841429 19.2534ZM0.996329 22.0141L6.73582 14.0525C7.1472 14.2265 7.52547 14.4693 7.85019 14.7692L1.3912 23.7296C1.21585 23.1836 1.08629 22.6061 0.996329 22.0141ZM8.93866 23.7199C8.82393 24.5369 8.65908 25.4681 8.15005 26.1813C7.61094 26.9354 6.67601 27.3681 5.69 27.4137L9.05523 22.7418C9.0206 23.0686 8.98428 23.3952 8.93866 23.7199ZM9.12779 21.9289L5.18569 27.4016C4.73174 27.3612 4.27914 27.2404 3.86094 27.0265C3.85156 27.0217 3.8433 27.0152 3.834 27.0103L9.21751 19.5411C9.22008 20.3368 9.19001 21.1339 9.12779 21.9289ZM9.2127 18.8355L3.47554 26.7953C3.10584 26.5487 2.78322 26.2402 2.50003 25.8862L9.00096 16.8641C9.14712 17.5016 9.19482 18.1753 9.2127 18.8355ZM8.8584 16.3493L2.2397 25.5349C1.97071 25.1345 1.74445 24.6888 1.55893 24.2092L8.14395 15.074C8.27183 15.223 8.39186 15.3782 8.49272 15.5461C8.64521 15.7995 8.76379 16.0693 8.8584 16.3493ZM25.8273 4.71035C22.2841 2.68318 17.6768 2.62946 14.0877 4.57421C10.7229 6.39757 8.34054 9.93013 7.86165 13.7221C7.34676 13.3747 6.76404 13.1254 6.15013 13.0038C6.68803 8.61661 9.51753 4.48105 13.4244 2.41643C17.4074 0.312368 22.5381 0.338826 26.4984 2.48538C30.3543 4.57533 33.1267 8.6939 33.6485 13.0502C32.9854 13.213 32.3604 13.5183 31.8313 13.9405C31.4225 10.1606 29.1312 6.60122 25.8273 4.71035ZM30.9972 16.8722L37.496 25.8914C37.2125 26.2449 36.8893 26.5526 36.5192 26.7986L30.7869 18.8456C30.8045 18.1851 30.8518 17.5107 30.9972 16.8722ZM30.7824 19.5517L36.1606 27.0137C36.1531 27.0176 36.1465 27.0228 36.139 27.0266C35.7184 27.2415 35.2632 27.3623 34.8068 27.402L30.873 21.9408C30.8106 21.1455 30.7802 20.348 30.7824 19.5517ZM31.0613 23.7199C31.0163 23.3995 30.9806 23.0772 30.9462 22.7547L34.3017 27.4131C33.3185 27.3657 32.3874 26.9339 31.8499 26.1813C31.3408 25.4681 31.1761 24.5369 31.0613 23.7199ZM16.5606 29.2748C16.793 29.182 17.0766 29.1871 17.4298 29.2229C18.0337 29.2846 18.6372 29.3971 19.2236 29.5572C19.6163 29.6648 20.0167 29.8006 20.2829 30.0651C20.8301 30.6081 20.7049 31.5602 19.9976 31.9929C19.6415 32.2108 19.152 32.2782 18.6181 32.1828C17.5007 31.9827 16.2277 31.4355 16.0072 30.4997C15.8895 30.002 16.143 29.441 16.5606 29.2748Z" fill="white"/>
<path d="M17.7461 16.7132C17.11 17.5691 16.3275 18.2308 15.499 18.9314C14.9134 19.4268 14.3075 19.9392 13.763 20.5237C13.5697 20.7308 13.6359 21.0666 13.892 21.1855C14.816 21.6146 16.3336 21.5088 17.4202 21.4458C17.8918 21.4185 18.337 21.3929 18.6918 21.3994C18.912 21.3934 19.1118 21.2203 19.1163 20.9904C19.1204 20.7603 18.9377 20.5703 18.7073 20.5659C18.3211 20.559 17.8601 20.5857 17.3717 20.6137C16.5546 20.6611 15.5869 20.7173 14.8601 20.6019C15.2407 20.2414 15.6435 19.9006 16.0374 19.5678C16.8651 18.8674 17.7212 18.1433 18.4151 17.2104C18.966 16.4694 19.2924 15.8206 19.4409 15.1686C19.6411 14.2931 19.4946 13.4274 19.0384 12.7938C18.3165 11.7896 16.8329 11.4656 15.6625 12.057C14.6228 12.5818 13.9241 13.7411 13.8834 15.0105C13.8757 15.2405 14.0564 15.4329 14.2863 15.4404C14.5089 15.4551 14.7091 15.2679 14.7161 15.0374C14.747 14.0831 15.2784 13.1845 16.0382 12.8009C16.839 12.3966 17.8812 12.6114 18.3621 13.2804C18.6739 13.7136 18.7735 14.3498 18.6287 14.9828C18.5062 15.5185 18.2258 16.0682 17.7461 16.7132Z" fill="white"/>
<path d="M26.754 18.9472C26.7634 18.7173 26.5847 18.5234 26.3548 18.514C25.9186 18.4961 25.4815 18.4843 25.0437 18.4784C25.0274 18.1916 24.8491 15.0304 24.7604 13.3804C24.7506 13.1999 24.6257 13.0463 24.4512 13.0001C24.2741 12.9525 24.0918 13.0251 23.9938 13.1769C22.7197 15.1533 21.6691 16.9723 20.2097 18.7801C20.1051 18.9095 20.0876 19.089 20.1654 19.2361C20.243 19.3836 20.401 19.4696 20.567 19.4573C21.7891 19.3602 23.0233 19.3102 24.2551 19.3074C24.2905 19.9434 24.3255 20.5793 24.3596 21.2147C24.3718 21.4369 24.5557 21.609 24.7755 21.609C24.7832 21.609 24.7906 21.6087 24.7983 21.6083C25.0282 21.5959 25.2043 21.3996 25.1922 21.1699C25.1584 20.5511 25.1246 19.9318 25.09 19.3124C25.501 19.3185 25.9116 19.3299 26.3206 19.3466C26.5685 19.3542 26.7451 19.1772 26.754 18.9472ZM21.4361 18.5615C22.357 17.3358 23.1563 16.0622 23.9986 14.7219C24.0559 15.7638 24.0957 16.4634 24.2086 18.474C23.2836 18.4772 22.3575 18.5063 21.4361 18.5615Z" fill="white"/>
<path d="M22.5154 1.84614C18.5461 1.00926 14.2571 2.22401 11.3169 5.01598C11.2336 5.09536 11.2303 5.22717 11.3096 5.31063C11.3882 5.39393 11.5208 5.39762 11.6043 5.31833C14.4463 2.61936 18.5946 1.44614 22.4292 2.25392C22.5407 2.27709 22.6526 2.20613 22.6762 2.093C22.6997 1.98043 22.6277 1.86995 22.5154 1.84614Z" fill="white"/>
<path d="M10.6874 5.71605L10.2951 6.05215C10.2076 6.12704 10.1974 6.25845 10.2723 6.346C10.3465 6.43275 10.4775 6.44405 10.5661 6.36877L10.9584 6.03227C11.0459 5.95738 11.0561 5.82574 10.9812 5.73842C10.9059 5.65135 10.7744 5.64117 10.6874 5.71605Z" fill="white"/>
</svg>
