<svg width="34" height="34" viewBox="0 0 34 34" fill="none" xmlns="http://www.w3.org/2000/svg">
<path d="M16.0121 1.28858C16.1891 0.162163 17.8109 0.162161 17.9879 1.28858L19.8738 13.2935C19.9411 13.7224 20.2776 14.0589 20.7065 14.1262L32.7114 16.0121C33.8378 16.1891 33.8378 17.8109 32.7114 17.9879L20.7065 19.8738C20.2776 19.9411 19.9411 20.2776 19.8738 20.7065L17.9879 32.7114C17.8109 33.8378 16.1891 33.8378 16.0121 32.7114L14.1262 20.7065C14.0589 20.2776 13.7224 19.9411 13.2935 19.8738L1.28858 17.9879C0.162163 17.8109 0.162161 16.1891 1.28858 16.0121L13.2935 14.1262C13.7224 14.0589 14.0589 13.7224 14.1262 13.2935L16.0121 1.28858Z" fill="#FFCB75"/>
</svg>
