<svg width="124" height="144" viewBox="0 0 124 144" fill="none" xmlns="http://www.w3.org/2000/svg">
<path d="M122.591 10.0874C116.622 13.6773 110.468 16.7544 104.044 19.4468C104.044 19.4468 104.044 19.4468 104.029 19.4468C103.93 19.4895 103.83 19.5323 103.73 19.575C102.306 20.1591 101.65 18.008 102.747 17.2387C106.722 14.4608 110.682 11.6829 114.657 8.90503C93.4733 10.3011 71.0791 12.4522 53.3433 25.0596C35.4651 37.7667 27.516 58.1379 34.7385 78.1388C52.7165 76.9422 71.6205 85.0479 83.6438 97.9687C88.53 103.225 95.7811 114.85 85.3248 118.753C75.4668 122.443 61.3209 112.998 54.0414 107.442C44.9811 100.533 37.4452 91.145 33.143 80.76C31.7897 80.8739 30.4649 81.0449 29.1685 81.2728C17.6153 83.3099 5.70595 90.0909 2.81409 102.257C-0.847036 117.713 10.8486 131.417 20.3932 141.988C20.906 142.558 20.0798 143.384 19.5527 142.828C10.293 133.141 0.549036 122.158 0.249878 107.955C0.00770225 96.2735 7.45817 87.1848 17.7008 82.3982C22.3164 80.2471 27.2169 78.9365 32.2028 78.3525C27.9719 66.5998 27.9719 53.7218 34.6103 41.7554C50.2235 13.6488 83.772 8.59163 113.161 6.45477L106.095 3.30649C104.599 2.63695 105.895 0.443115 107.377 1.09842C111.109 2.75092 114.842 4.41766 118.56 6.07014C118.731 6.07014 118.902 6.04166 119.073 6.04166C119.699 5.99892 120.07 6.35506 120.212 6.81091C120.996 7.15282 121.779 7.50896 122.563 7.85086C123.475 8.24973 123.318 9.60306 122.563 10.0589L122.591 10.0874ZM37.7729 84.9197C42.9583 94.4785 50.8503 102.613 59.9533 108.482C64.5689 111.459 69.6546 114.066 74.9112 115.719C76.9911 116.374 79.3274 117.001 81.5212 116.858C88.1597 116.431 89.0144 110.277 86.2222 105.291C77.0765 88.9227 54.4403 79.8768 35.6788 80.6033C36.2913 82.0563 36.9894 83.4951 37.7586 84.9339L37.7729 84.9197Z" fill="url(#paint0_linear_1_7337)"/>
<defs>
<linearGradient id="paint0_linear_1_7337" x1="99.1563" y1="0.810275" x2="8.71901" y2="139.829" gradientUnits="userSpaceOnUse">
<stop stop-color="#FE8102"/>
<stop offset="1" stop-color="#FE8102" stop-opacity="0"/>
</linearGradient>
</defs>
</svg>
