<svg width="24" height="30" viewBox="0 0 24 30" fill="none" xmlns="http://www.w3.org/2000/svg">
<path d="M20.5699 3.93055H17.8558V2.71638C17.8558 2.32355 17.4273 2.14501 17.0345 2.14501H14.9275C14.4276 0.716544 13.1776 0.00231226 11.7492 0.00231226C10.3364 -0.0507989 9.05145 0.815453 8.57085 2.14501H6.49959C6.10675 2.14501 5.71392 2.32355 5.71392 2.71638V3.93055H2.99979C1.39142 3.94771 0.0755996 5.2165 0 6.82316V27.2859C0 28.8572 1.42846 29.9999 2.99979 29.9999H20.5699C22.1412 29.9999 23.5697 28.8572 23.5697 27.2859V6.82323C23.4941 5.2165 22.1782 3.94771 20.5699 3.93055ZM7.14232 3.57347H9.10647C9.27349 3.55309 9.42956 3.47964 9.55171 3.36393C9.67386 3.24821 9.75565 3.09634 9.78503 2.93067C9.99651 2.00967 10.8045 1.34855 11.7492 1.32367C12.6851 1.35203 13.4809 2.0152 13.6776 2.93067C13.7087 3.10175 13.7957 3.25767 13.925 3.37399C14.0542 3.49031 14.2184 3.56047 14.3918 3.57347H16.4274V6.4304H7.14232V3.57347ZM22.1412 27.2859C22.1412 28.0716 21.3555 28.5715 20.5699 28.5715H2.99979C2.21413 28.5715 1.42846 28.0716 1.42846 27.2859V6.82323C1.50133 6.00544 2.17886 5.37406 2.99979 5.35909H5.71386V7.18038C5.75159 7.58053 6.09814 7.87985 6.49952 7.85893H17.0344C17.2315 7.86972 17.4255 7.80589 17.5777 7.68016C17.7299 7.55442 17.8291 7.37599 17.8557 7.18038V5.35902H20.5698C21.3907 5.37406 22.0683 6.00537 22.1411 6.82316V27.2859H22.1412Z" fill="white"/>
<path d="M9.03527 15.9653C8.76739 15.683 8.32267 15.667 8.03531 15.9297L5.74976 18.108L4.78556 17.1081C4.51768 16.8257 4.07296 16.8098 3.7856 17.0724C3.65243 17.2119 3.57812 17.3973 3.57812 17.5902C3.57813 17.7831 3.65243 17.9685 3.7856 18.108L5.24975 19.6079C5.31235 19.678 5.38955 19.7335 5.47593 19.7706C5.56231 19.8076 5.65576 19.8252 5.74969 19.8222C5.93808 19.8195 6.11778 19.7425 6.24963 19.6079L9.03513 16.9653C9.31128 16.712 9.32974 16.2827 9.07635 16.0066C9.06333 15.9922 9.04962 15.9784 9.03527 15.9653ZM19.2845 17.5009H11.0709C10.6764 17.5009 10.3566 17.8207 10.3566 18.2151C10.3566 18.6096 10.6764 18.9294 11.0709 18.9294H19.2845C19.679 18.9294 19.9987 18.6096 19.9987 18.2151C19.9987 17.8207 19.679 17.5009 19.2845 17.5009ZM9.03527 10.2515C8.76739 9.96911 8.32267 9.95318 8.03531 10.2158L5.74976 12.3942L4.78556 11.3942C4.51768 11.1119 4.07296 11.0959 3.7856 11.3585C3.65243 11.498 3.57812 11.6835 3.57812 11.8764C3.57812 12.0692 3.65243 12.2547 3.7856 12.3942L5.24975 13.8941C5.31235 13.9642 5.38955 14.0197 5.47593 14.0567C5.56231 14.0937 5.65576 14.1114 5.74969 14.1084C5.93808 14.1057 6.11778 14.0287 6.24963 13.8941L9.03513 11.2514C9.31128 10.9981 9.32974 10.5688 9.07635 10.2928C9.06333 10.2783 9.04962 10.2646 9.03527 10.2515ZM19.2845 11.7871H11.0709C10.6764 11.7871 10.3566 12.1068 10.3566 12.5013C10.3566 12.8958 10.6764 13.2155 11.0709 13.2155H19.2845C19.679 13.2155 19.9987 12.8958 19.9987 12.5013C19.9987 12.1068 19.679 11.7871 19.2845 11.7871ZM9.03527 21.6791C8.76739 21.3968 8.32267 21.3809 8.03531 21.6434L5.74976 23.8218L4.78556 22.8219C4.51768 22.5395 4.07296 22.5236 3.7856 22.7862C3.65243 22.9257 3.57813 23.1111 3.57812 23.304C3.57813 23.4969 3.65243 23.6823 3.7856 23.8218L5.24975 25.3217C5.31235 25.3918 5.38955 25.4473 5.47593 25.4843C5.56231 25.5214 5.65576 25.539 5.74969 25.536C5.93808 25.5333 6.11778 25.4563 6.24963 25.3217L9.03513 22.6791C9.31128 22.4258 9.32974 21.9965 9.07635 21.7204C9.06329 21.706 9.04959 21.6922 9.03527 21.6791ZM19.2845 23.2148H11.0709C10.6764 23.2148 10.3566 23.5345 10.3566 23.929C10.3566 24.3235 10.6764 24.6432 11.0709 24.6432H19.2845C19.679 24.6432 19.9987 24.3235 19.9987 23.929C19.9987 23.5345 19.679 23.2148 19.2845 23.2148Z" fill="white"/>
</svg>
