<svg width="30" height="15" viewBox="0 0 30 15" fill="none" xmlns="http://www.w3.org/2000/svg">
<path d="M29.6563 6.43611L29.6552 6.43499L23.5319 0.341246C23.0732 -0.115258 22.3312 -0.113559 21.8746 0.34523C21.4181 0.80396 21.4198 1.54593 21.8785 2.00249L25.9897 6.09374L1.17187 6.09374C0.524648 6.09374 0 6.61839 0 7.26562C0 7.91284 0.524648 8.43749 1.17187 8.43749L25.9897 8.43749L21.8786 12.5287C21.4199 12.9853 21.4181 13.7273 21.8747 14.186C22.3313 14.6449 23.0733 14.6464 23.532 14.19L29.6553 8.09624L29.6563 8.09513C30.1153 7.63704 30.1138 6.89267 29.6563 6.43611Z" fill="#19254B"/>
</svg>
