<svg width="839" height="489" viewBox="0 0 839 489" fill="none" xmlns="http://www.w3.org/2000/svg">
<path opacity="0.1" d="M151.991 246.552C67.191 233.752 23.3243 303.886 11.991 340.552C-32.809 430.152 58.6577 444.552 109.991 440.552C179.324 432.552 321.991 427.752 337.991 472.552C357.991 528.552 615.991 422.552 601.991 384.552C587.991 346.552 611.991 282.552 755.991 246.552C871.191 217.752 841.324 82.5523 811.991 18.5523C777.991 4.5523 705.591 -15.0477 687.991 18.5523C665.991 60.5523 645.991 118.552 511.991 106.552C377.991 94.5523 403.991 66.5523 349.991 182.552C306.791 275.352 199.991 263.886 151.991 246.552Z" fill="white"/>
</svg>
